<svg id="Layer_1" data-name="Layer 1" xmlns="http://www.w3.org/2000/svg" viewBox="0 0 400 400"><defs><style>.cls-1{fill:#666;}</style></defs><title>Artboard 1</title><path class="cls-1" d="M155.73,112.93c2.84-2,6.32-4.08,9.56-2.83,4.47,1.74,4.5,8,3.74,12.71-2.47,15.38-9.13,47.51-11.6,62.89a305.78,305.78,0,0,1,114.18-71.43c7.35-2.57,15.3-4.87,22.8-2.8s13.82,10.24,11.1,17.52a271.83,271.83,0,0,0-12,42,741.91,741.91,0,0,1,78.71-48.79A189,189,0,0,0,200,11C95.62,11,11,95.62,11,200a190.54,190.54,0,0,0,1.91,26.89C58.18,191.27,123,136,155.73,112.93Zm.38-33c.7-4.91,5.91-8.22,11.64-7.4s9.8,5.46,9.1,10.37-5.91,8.22-11.64,7.4S155.42,84.85,156.12,79.94Z"/><path class="cls-1" d="M303.15,181.62c-7.73,5.51-15.82,11.83-18.5,20.94C273.31,241.19,259,281,229.42,308.25c-7.81,7.21-18.84,13.7-28.55,9.38-7.19-3.2-10.93-11.63-10.75-19.5s3.52-15.29,7.16-22.27A234.82,234.82,0,0,1,258,201.8c14.44-11.64,17.15-13.85,22.89-48.63l-12,10.64c-5.73,5.09-13.16,10.55-20.35,7.9-5.74-2.11-8.62-8.92-8.16-15s3.48-11.67,6.44-17a311.39,311.39,0,0,0-81.16,59.09c-6.13,6.2-12.28,13.25-13.41,21.89a189,189,0,0,1-33.35,84.7c-5.25,7.36-11.4,14.62-19.79,18s-19.48,1.6-24.15-6.14-1.47-17.63,2.26-25.83C90.65,261.78,110.08,229,134,207c4.81-4.44,6-5.6,6.94-12.08,2.15-15,8.48-46.77,10.63-61.78C123,153.73,49.37,219.17,16,243.47,35.67,326.89,110.58,389,200,389c104.38,0,189-84.62,189-189a188.63,188.63,0,0,0-11.39-64.75A706.2,706.2,0,0,0,303.15,181.62Z"/><path class="cls-1" d="M283.56,125.49c-7.61,2.5-13.8,10.21-19.06,15.1-2.75,3-5.3,5.35-6.67,8.77-1.18,3.31-.85,3.69-.26,3.92.27.08.9-.33,1.56-.72,5.26-3.14,26.43-23.83,26.8-26.42C286,125.25,284.45,125.2,283.56,125.49Z"/><path class="cls-1" d="M89.37,312.31a4.35,4.35,0,0,0,3.31-1c5.54-3.29,20.82-23.68,27.69-36.64,5.95-10.22,13-25.32,20.44-54.31-20.26,20-43,58.88-52.75,85.58C87.21,308.22,87,311.72,89.37,312.31Z"/><path class="cls-1" d="M223.78,259.75C215.65,270.5,208,282,204.62,295.07c-.69,2.62-1.18,5.51,0,7.94s3.65,3.08,6.7,2c8.07-3.09,44.95-55.69,53.29-90.1A332.52,332.52,0,0,0,223.78,259.75Z"/></svg>