<svg id="Layer_1" data-name="Layer 1" xmlns="http://www.w3.org/2000/svg" viewBox="0 0 612 792"><defs><style>.cls-1{fill:#999;}.cls-11,.cls-2,.cls-3,.cls-5{fill:#fff;}.cls-3{font-size:48.18px;}.cls-11,.cls-20,.cls-3,.cls-5{font-family:GothamBook, GothamBook;}.cls-4{letter-spacing:-0.02em;}.cls-5{font-size:17px;}.cls-6{letter-spacing:-0.01em;}.cls-7{letter-spacing:-0.09em;}.cls-8{letter-spacing:0em;}.cls-9{letter-spacing:-0.02em;}.cls-10{letter-spacing:-0.09em;}.cls-11{font-size:16px;}.cls-12{letter-spacing:-0.03em;}.cls-13{letter-spacing:-0.02em;}.cls-14{letter-spacing:-0.02em;}.cls-15{letter-spacing:-0.01em;}.cls-16{font-size:14px;fill:#666766;font-family:GothamBold, GothamBold;}.cls-17{letter-spacing:-0.01em;}.cls-18{letter-spacing:-0.01em;}.cls-19{letter-spacing:-0.09em;}.cls-20{font-size:12px;fill:#231f20;}.cls-21{letter-spacing:-0.01em;}.cls-22{letter-spacing:-0.02em;}.cls-23{letter-spacing:-0.02em;}.cls-24{letter-spacing:-0.01em;}.cls-25{letter-spacing:-0.02em;}.cls-26{letter-spacing:-0.03em;}.cls-27{letter-spacing:-0.01em;}.cls-28{letter-spacing:0em;}.cls-29{letter-spacing:-0.02em;}.cls-30{letter-spacing:-0.01em;}.cls-31{letter-spacing:-0.02em;}.cls-32{letter-spacing:-0.03em;}.cls-33{letter-spacing:0em;}.cls-34{letter-spacing:-0.03em;}.cls-35{letter-spacing:0em;}.cls-36{letter-spacing:-0.02em;}.cls-37{letter-spacing:-0.02em;}.cls-38{letter-spacing:-0.05em;}.cls-39{letter-spacing:-0.02em;}.cls-40{letter-spacing:0em;}.cls-41{letter-spacing:-0.02em;}.cls-42{letter-spacing:1.26em;}.cls-43{letter-spacing:2.7em;}.cls-44{letter-spacing:-0.11em;}.cls-45{letter-spacing:-0.09em;}.cls-46{letter-spacing:-0.03em;}.cls-47{letter-spacing:-0.08em;}.cls-48{letter-spacing:-0.11em;}.cls-49{letter-spacing:0.3em;}.cls-50{letter-spacing:-0.09em;}.cls-51{letter-spacing:-0.11em;}.cls-52{letter-spacing:-0.09em;}.cls-53{letter-spacing:-0.01em;}.cls-54{letter-spacing:-0.02em;}.cls-55{letter-spacing:-0.09em;}.cls-56{letter-spacing:-0.03em;}.cls-57{letter-spacing:-0.03em;}.cls-58{letter-spacing:-0.03em;}</style></defs><title>Artboard 1</title><rect class="cls-1" x="-3.59" y="-7.83" width="619.19" height="403.83"/><rect x="-3.59" y="396" width="619.19" height="404.74"/><rect class="cls-2" x="41.1" y="153.34" width="529.8" height="601.42"/><text class="cls-3" transform="translate(85.99 59.95)"><tspan class="cls-4">J</tspan><tspan x="25.44" y="0">AMES GIANNONI</tspan></text><text class="cls-5" transform="translate(120.96 94.75)">Ba<tspan class="cls-6" x="22.12" y="0">s</tspan><tspan x="30.41" y="0">si</tspan><tspan class="cls-6" x="43.35" y="0">s</tspan><tspan x="51.64" y="0">t, </tspan><tspan class="cls-6" x="67.78" y="0">C</tspan><tspan x="80.15" y="0">ompose</tspan><tspan class="cls-7" x="148.1" y="0">r</tspan><tspan class="cls-8" x="153.46" y="0">, Ar</tspan><tspan class="cls-9" x="183.04" y="0">r</tspan><tspan x="189.5" y="0">ange</tspan><tspan class="cls-10" x="231.16" y="0">r</tspan><tspan x="236.52" y="0">, Berklee Alumni</tspan></text><text class="cls-11" transform="translate(88.31 128.77)">214-<tspan class="cls-12" x="32.58" y="0">2</tspan><tspan x="41.74" y="0" xml:space="preserve">40-8062   |   jsgiannoni@</tspan><tspan class="cls-13" x="241.61" y="0">y</tspan><tspan x="250.67" y="0">aho</tspan><tspan class="cls-14" x="280.12" y="0">o.</tspan><tspan class="cls-15" x="293.74" y="0">c</tspan><tspan x="302.64" y="0" xml:space="preserve">om   |   Dallas, TX</tspan></text><text class="cls-16" transform="translate(70.9 191.22)">MI<tspan class="cls-17" x="16.86" y="0">S</tspan><tspan x="25.68" y="0">SION </tspan><tspan class="cls-18" x="66.5" y="0">S</tspan><tspan class="cls-19" x="75.25" y="0">TA</tspan><tspan x="92.86" y="0">TEMENT</tspan><tspan class="cls-20"><tspan x="0" y="31.2">My goal as a ba</tspan><tspan class="cls-17" x="92.52" y="31.2">s</tspan><tspan x="98.37" y="31.2">si</tspan><tspan class="cls-21" x="107.5" y="31.2">s</tspan><tspan x="113.36" y="31.2">t and musician is </tspan><tspan class="cls-22" x="216.33" y="31.2">t</tspan><tspan x="221" y="31.2">o bring li</tspan><tspan class="cls-17" x="273.61" y="31.2">f</tspan><tspan x="277.89" y="31.2">e and ene</tspan><tspan class="cls-23" x="336.1" y="31.2">r</tspan><tspan x="340.71" y="31.2">gy in</tspan><tspan class="cls-24" x="369.91" y="31.2">t</tspan><tspan x="374.58" y="31.2">o </tspan><tspan class="cls-25" x="385.93" y="31.2">e</tspan><tspan class="cls-26" x="392.74" y="31.2">v</tspan><tspan x="399.42" y="31.2">ery </tspan><tspan x="0" y="45.6">situ</tspan><tspan class="cls-27" x="21.37" y="45.6">a</tspan><tspan x="28.26" y="45.6">tion, t</tspan><tspan class="cls-25" x="62.79" y="45.6">r</tspan><tspan x="67.35" y="45.6">ack, or per</tspan><tspan class="cls-17" x="130.67" y="45.6">f</tspan><tspan x="134.95" y="45.6">orman</tspan><tspan class="cls-22" x="173.31" y="45.6">c</tspan><tspan x="179.99" y="45.6">e th</tspan><tspan class="cls-27" x="202.93" y="45.6">a</tspan><tspan x="209.82" y="45.6">t I ta</tspan><tspan class="cls-25" x="237.15" y="45.6">k</tspan><tspan x="243.68" y="45.6">e part in. No m</tspan><tspan class="cls-28" x="331.94" y="45.6">a</tspan><tspan x="338.83" y="45.6">t</tspan><tspan class="cls-29" x="343.67" y="45.6">t</tspan><tspan x="348.34" y="45.6">er the </tspan><tspan class="cls-30" x="386.85" y="45.6">s</tspan><tspan x="392.7" y="45.6">tyle or </tspan><tspan x="0" y="60">ci</tspan><tspan class="cls-31" x="10.01" y="60">r</tspan><tspan x="14.6" y="60">cum</tspan><tspan class="cls-17" x="40.26" y="60">s</tspan><tspan x="46.12" y="60">tan</tspan><tspan class="cls-22" x="65.3" y="60">c</tspan><tspan class="cls-21" x="71.98" y="60">e</tspan><tspan x="78.96" y="60">, I aim </tspan><tspan class="cls-22" x="117.71" y="60">t</tspan><tspan x="122.37" y="60">o gi</tspan><tspan class="cls-32" x="144.85" y="60">v</tspan><tspan x="151.53" y="60">e 100% of </tspan><tspan class="cls-24" x="213.06" y="60">m</tspan><tspan x="224.29" y="60">y ability </tspan><tspan class="cls-25" x="274.9" y="60">e</tspan><tspan class="cls-26" x="281.71" y="60">v</tspan><tspan x="288.39" y="60">ery tim</tspan><tspan class="cls-17" x="330.46" y="60">e</tspan><tspan x="337.45" y="60">.</tspan></tspan><tspan x="0" y="91.2">EXPERIENCE</tspan><tspan class="cls-20"><tspan x="0" y="122.4">Notable </tspan><tspan class="cls-27" x="50.85" y="122.4">P</tspan><tspan x="58.81" y="122.4">er</tspan><tspan class="cls-21" x="70.77" y="122.4">f</tspan><tspan x="75.06" y="122.4">orman</tspan><tspan class="cls-22" x="113.42" y="122.4">c</tspan><tspan x="120.09" y="122.4">es </tspan><tspan class="cls-22" x="136.77" y="122.4">W</tspan><tspan class="cls-33" x="149.88" y="122.4">ith:</tspan><tspan x="0" y="136.8" xml:space="preserve">   • R.I.P Soul Band </tspan><tspan class="cls-27" x="113.95" y="136.8">a</tspan><tspan x="120.84" y="136.8">t Bo</tspan><tspan class="cls-21" x="145.7" y="136.8">s</tspan><tspan class="cls-22" x="151.56" y="136.8">t</tspan><tspan x="156.22" y="136.8">on Book </tspan><tspan class="cls-22" x="209.56" y="136.8">F</tspan><tspan x="217.26" y="136.8">e</tspan><tspan class="cls-17" x="224.36" y="136.8">s</tspan><tspan x="230.22" y="136.8">ti</tspan><tspan class="cls-25" x="238.22" y="136.8">v</tspan><tspan x="244.96" y="136.8">al </tspan><tspan class="cls-34" x="258.67" y="136.8">(</tspan><tspan x="263.52" y="136.8">Oc</tspan><tspan class="cls-29" x="280.57" y="136.8">t</tspan><tspan x="285.23" y="136.8">ober 2</tspan><tspan class="cls-28" x="323.71" y="136.8">0</tspan><tspan x="332.23" y="136.8">15)</tspan><tspan x="0" y="151.2" xml:space="preserve">   • Maher Beau</tspan><tspan class="cls-31" x="90.56" y="151.2">r</tspan><tspan class="cls-26" x="95.16" y="151.2">o</tspan><tspan x="102.55" y="151.2">y trio in </tspan><tspan class="cls-25" x="151.6" y="151.2">A</tspan><tspan class="cls-24" x="160.78" y="151.2">c</tspan><tspan class="cls-35" x="167.46" y="151.2">c</tspan><tspan class="cls-25" x="174.31" y="151.2">r</tspan><tspan x="178.87" y="151.2">a, Ghana jazz </tspan><tspan class="cls-17" x="261.09" y="151.2">f</tspan><tspan x="265.38" y="151.2">e</tspan><tspan class="cls-17" x="272.48" y="151.2">s</tspan><tspan x="278.33" y="151.2">ti</tspan><tspan class="cls-25" x="286.34" y="151.2">v</tspan><tspan x="293.08" y="151.2">al (April 2</tspan><tspan class="cls-28" x="351.4" y="151.2">0</tspan><tspan x="359.92" y="151.2">14) Maxime </tspan><tspan x="0" y="165.6" xml:space="preserve">      Choll</tspan><tspan class="cls-25" x="51.91" y="165.6">e</tspan><tspan x="58.71" y="165.6">y G</tspan><tspan class="cls-36" x="78.81" y="165.6">r</tspan><tspan x="83.41" y="165.6">oup (2</tspan><tspan class="cls-28" x="122.52" y="165.6">0</tspan><tspan x="131.04" y="165.6">14 – 2</tspan><tspan class="cls-27" x="164.11" y="165.6">0</tspan><tspan x="172.63" y="165.6">15)</tspan><tspan x="0" y="180" xml:space="preserve">   • B</tspan><tspan class="cls-25" x="28.8" y="180">r</tspan><tspan x="33.36" y="180">adl</tspan><tspan class="cls-25" x="51.43" y="180">e</tspan><tspan x="58.23" y="180">y Ski</tspan><tspan class="cls-21" x="86.59" y="180">s</tspan><tspan x="92.45" y="180">timus on Good D</tspan><tspan class="cls-37" x="193.44" y="180">a</tspan><tspan x="200.14" y="180">y Dallas, </tspan><tspan class="cls-24" x="252.94" y="180">F</tspan><tspan class="cls-38" x="260.64" y="180">O</tspan><tspan x="270.24" y="180">X 4 (</tspan><tspan class="cls-29" x="299.4" y="180">F</tspan><tspan x="307.09" y="180">ebruary 2</tspan><tspan class="cls-28" x="364.1" y="180">0</tspan><tspan x="372.62" y="180">13) </tspan><tspan class="cls-17" x="393.08" y="180">C</tspan><tspan x="401.81" y="180">ountry </tspan><tspan x="0" y="194.4" xml:space="preserve">      arti</tspan><tspan class="cls-17" x="41.41" y="194.4">s</tspan><tspan x="47.27" y="194.4">ts </tspan><tspan class="cls-25" x="61.69" y="194.4">A</tspan><tspan x="70.87" y="194.4">drian John</tspan><tspan class="cls-17" x="133.96" y="194.4">s</tspan><tspan class="cls-24" x="139.82" y="194.4">t</tspan><tspan x="144.49" y="194.4">on and Zach </tspan><tspan class="cls-17" x="222.25" y="194.4">E</tspan><tspan x="230.17" y="194.4">d</tspan><tspan class="cls-39" x="238.13" y="194.4">w</tspan><tspan class="cls-40" x="248.23" y="194.4">a</tspan><tspan class="cls-41" x="255.17" y="194.4">r</tspan><tspan class="cls-40" x="259.78" y="194.4">ds (2</tspan><tspan class="cls-28" x="289.72" y="194.4">0</tspan><tspan x="298.24" y="194.4">13) Hip-Hop arti</tspan><tspan class="cls-17" x="392.09" y="194.4">s</tspan><tspan x="397.95" y="194.4">t Alsa</tspan><tspan class="cls-24" x="431.95" y="194.4">c</tspan><tspan x="438.63" y="194.4">e </tspan><tspan class="cls-42" x="449.33" y="194.4">	</tspan><tspan class="cls-43" x="468" y="194.4">	</tspan><tspan x="0" y="208.8" xml:space="preserve">      Ca</tspan><tspan class="cls-31" x="37.4" y="208.8">r</tspan><tspan x="42" y="208.8">cione (2</tspan><tspan class="cls-27" x="90.25" y="208.8">0</tspan><tspan x="98.77" y="208.8">12 – 2</tspan><tspan class="cls-27" x="130.98" y="208.8">0</tspan><tspan x="139.5" y="208.8">13)</tspan><tspan class="cls-17" x="0" y="237.6">R</tspan><tspan x="8.56" y="237.6">e</tspan><tspan class="cls-24" x="15.66" y="237.6">c</tspan><tspan x="22.33" y="237.6">o</tspan><tspan class="cls-23" x="30.08" y="237.6">r</tspan><tspan x="34.69" y="237.6">dings </tspan><tspan class="cls-22" x="70.75" y="237.6">W</tspan><tspan x="83.85" y="237.6">ith:</tspan><tspan x="0" y="252" xml:space="preserve">  • </tspan><tspan class="cls-32" x="16.54" y="252">K</tspan><tspan class="cls-25" x="24.8" y="252">e</tspan><tspan class="cls-26" x="31.61" y="252">v</tspan><tspan x="38.29" y="252">en E</tspan><tspan class="cls-25" x="64.43" y="252">k</tspan><tspan x="70.96" y="252">enes trio (Des</tspan><tspan class="cls-22" x="154.02" y="252">c</tspan><tspan x="160.69" y="252">ension, on </tspan><tspan class="cls-44" x="224.74" y="252">Y</tspan><tspan x="232.02" y="252">ou</tspan><tspan class="cls-45" x="247.16" y="252">T</tspan><tspan x="253.89" y="252">ub</tspan><tspan class="cls-26" x="269.25" y="252">e</tspan><tspan x="276" y="252">)</tspan><tspan x="0" y="266.4" xml:space="preserve">  • Maxime Choll</tspan><tspan class="cls-25" x="96.37" y="266.4">e</tspan><tspan x="103.17" y="266.4">y (</tspan><tspan class="cls-46" x="119.07" y="266.4">T</tspan><tspan x="126.47" y="266.4">ig</tspan><tspan class="cls-25" x="137.59" y="266.4">r</tspan><tspan x="142.15" y="266.4">an Hama</tspan><tspan class="cls-22" x="194.52" y="266.4">s</tspan><tspan class="cls-25" x="200.31" y="266.4">y</tspan><tspan x="207.1" y="266.4">an medl</tspan><tspan class="cls-25" x="254.68" y="266.4">e</tspan><tspan class="cls-47" x="261.49" y="266.4">y</tspan><tspan x="267.56" y="266.4">, on </tspan><tspan class="cls-48" x="292.84" y="266.4">Y</tspan><tspan x="300.11" y="266.4">ou</tspan><tspan class="cls-45" x="315.26" y="266.4">T</tspan><tspan x="321.99" y="266.4">ub</tspan><tspan class="cls-34" x="337.35" y="266.4">e</tspan><tspan x="344.09" y="266.4">) Jean Ca</tspan><tspan class="cls-17" x="400.38" y="266.4">s</tspan><tspan class="cls-29" x="406.24" y="266.4">t</tspan><tspan x="410.91" y="266.4">el </tspan><tspan class="cls-49" x="424.77" y="266.4">	</tspan><tspan class="cls-43" x="432" y="266.4" xml:space="preserve">		</tspan><tspan x="0" y="280.8" xml:space="preserve">     (</tspan><tspan class="cls-17" x="23.21" y="280.8">E</tspan><tspan class="cls-32" x="31.13" y="280.8">v</tspan><tspan x="37.81" y="280.8">er</tspan><tspan class="cls-25" x="49.77" y="280.8">y</tspan><tspan x="56.57" y="280.8">d</tspan><tspan class="cls-37" x="64.53" y="280.8">a</tspan><tspan class="cls-50" x="71.24" y="280.8">y</tspan><tspan x="77.31" y="280.8">, on </tspan><tspan class="cls-51" x="102.6" y="280.8">Y</tspan><tspan x="109.87" y="280.8">ou</tspan><tspan class="cls-45" x="125.01" y="280.8">T</tspan><tspan x="131.75" y="280.8">ub</tspan><tspan class="cls-32" x="147.11" y="280.8">e</tspan><tspan x="153.85" y="280.8">)</tspan><tspan x="0" y="295.2" xml:space="preserve">  • R.I.P music (Soundcloud)</tspan><tspan x="0" y="309.6" xml:space="preserve">  • Maher Beau</tspan><tspan class="cls-31" x="86.96" y="309.6">r</tspan><tspan class="cls-26" x="91.56" y="309.6">o</tspan><tspan x="98.95" y="309.6">y </tspan><tspan class="cls-52" x="109.64" y="309.6">T</tspan><tspan x="116.35" y="309.6">rio</tspan><tspan x="0" y="324" xml:space="preserve">  • Good </tspan><tspan class="cls-27" x="53.02" y="324">P</tspan><tspan x="60.97" y="324">eople P</tspan><tspan class="cls-31" x="105.67" y="324">r</tspan><tspan x="110.27" y="324">oductions</tspan><tspan class="cls-32" x="169.35" y="324">/</tspan><tspan class="cls-27" x="175.09" y="324">S</tspan><tspan x="182.71" y="324">tudio</tspan><tspan x="0" y="338.4" xml:space="preserve">  • Omar Of</tspan><tspan class="cls-17" x="68.16" y="338.4">f</tspan><tspan x="72.44" y="338.4">endum</tspan><tspan x="0" y="352.8" xml:space="preserve">  • Dar</tspan><tspan class="cls-31" x="37.73" y="352.8">r</tspan><tspan x="42.32" y="352.8">en Bar</tspan><tspan class="cls-36" x="80.89" y="352.8">r</tspan><tspan x="85.49" y="352.8">ett</tspan></tspan><tspan x="0" y="384">EDUC</tspan><tspan class="cls-19" x="41.24" y="384">A</tspan><tspan x="51.04" y="384">TION</tspan><tspan class="cls-20"><tspan x="0" y="415.2">Berklee </tspan><tspan class="cls-17" x="48.42" y="415.2">C</tspan><tspan x="57.15" y="415.2">ollege of Music, BA in </tspan><tspan class="cls-28" x="188.97" y="415.2">P</tspan><tspan x="196.93" y="415.2">er</tspan><tspan class="cls-17" x="208.89" y="415.2">f</tspan><tspan x="213.18" y="415.2">orman</tspan><tspan class="cls-24" x="251.54" y="415.2">c</tspan><tspan x="258.21" y="415.2">e (2</tspan><tspan class="cls-53" x="281.31" y="415.2">0</tspan><tspan x="289.83" y="415.2">14 – 2</tspan><tspan class="cls-28" x="322.9" y="415.2">0</tspan><tspan x="331.42" y="415.2">16)</tspan><tspan x="0" y="429.6">In</tspan><tspan class="cls-17" x="10.88" y="429.6">s</tspan><tspan x="16.74" y="429.6">truc</tspan><tspan class="cls-24" x="40.69" y="429.6">t</tspan><tspan x="45.36" y="429.6">ors: </tspan><tspan class="cls-39" x="70.61" y="429.6">V</tspan><tspan class="cls-33" x="79.37" y="429.6">ic</tspan><tspan class="cls-24" x="89.38" y="429.6">t</tspan><tspan x="94.04" y="429.6">or Bail</tspan><tspan class="cls-25" x="132.18" y="429.6">e</tspan><tspan class="cls-50" x="138.98" y="429.6">y</tspan><tspan x="145.05" y="429.6">, Lin</tspan><tspan class="cls-22" x="169.57" y="429.6">c</tspan><tspan x="176.24" y="429.6">oln Goines, John </tspan><tspan class="cls-17" x="278.24" y="429.6">L</tspan><tspan x="285.55" y="429.6">oc</tspan><tspan class="cls-54" x="300.15" y="429.6">k</tspan><tspan class="cls-25" x="306.74" y="429.6">w</tspan><tspan x="316.77" y="429.6">ood, Jason </tspan><tspan class="cls-17" x="385.08" y="429.6">P</tspan><tspan x="392.98" y="429.6">alme</tspan><tspan class="cls-55" x="421.6" y="429.6">r</tspan><tspan x="425.38" y="429.6">, </tspan><tspan class="cls-56" x="431.92" y="429.6">T</tspan><tspan x="439.31" y="429.6">ia </tspan><tspan x="0" y="444">Fulle</tspan><tspan class="cls-55" x="28.68" y="444">r</tspan><tspan x="32.46" y="444">, Dar</tspan><tspan class="cls-31" x="60.19" y="444">r</tspan><tspan x="64.79" y="444">en Bar</tspan><tspan class="cls-36" x="103.35" y="444">r</tspan><tspan class="cls-33" x="107.95" y="444">ett, </tspan><tspan class="cls-46" x="131.29" y="444">T</tspan><tspan x="138.68" y="444">iger O</tspan><tspan class="cls-25" x="175.57" y="444">k</tspan><tspan x="182.1" y="444">oshi, </tspan><tspan class="cls-32" x="212.91" y="444">K</tspan><tspan x="221.18" y="444">en </tspan><tspan class="cls-17" x="239.27" y="444">C</tspan><tspan x="248.01" y="444">er</tspan><tspan class="cls-26" x="259.97" y="444">v</tspan><tspan x="266.66" y="444">en</tspan><tspan class="cls-30" x="281.15" y="444">k</tspan><tspan x="287.86" y="444">a and Alain Mallet</tspan><tspan class="cls-17" x="0" y="458.4">C</tspan><tspan x="8.74" y="458.4">ollin </tspan><tspan class="cls-21" x="36.95" y="458.4">C</tspan><tspan x="45.68" y="458.4">ollege (2</tspan><tspan class="cls-27" x="97.92" y="458.4">0</tspan><tspan x="106.44" y="458.4">12 – 2</tspan><tspan class="cls-27" x="138.65" y="458.4">0</tspan><tspan x="147.17" y="458.4">14)</tspan></tspan><tspan x="0" y="489.6">SKILLS</tspan><tspan class="cls-20"><tspan x="0" y="520.8">Electric Ba</tspan><tspan class="cls-17" x="64.08" y="520.8">s</tspan><tspan x="69.94" y="520.8">s, Upright Ba</tspan><tspan class="cls-21" x="146.96" y="520.8">s</tspan><tspan x="152.82" y="520.8">s, </tspan><tspan class="cls-22" x="165.33" y="520.8">S</tspan><tspan x="172.83" y="520.8">ynth/</tspan><tspan class="cls-32" x="205.65" y="520.8">K</tspan><tspan class="cls-57" x="213.92" y="520.8">e</tspan><tspan x="220.72" y="520.8">y Ba</tspan><tspan class="cls-17" x="247.03" y="520.8">s</tspan><tspan class="cls-40" x="252.88" y="520.8">s Ar</tspan><tspan class="cls-58" x="276.8" y="520.8">r</tspan><tspan x="281.36" y="520.8">anging, </tspan><tspan class="cls-30" x="328.72" y="520.8">C</tspan><tspan x="337.46" y="520.8">omposing, Pri</tspan><tspan class="cls-58" x="419.4" y="520.8">v</tspan><tspan class="cls-28" x="426.15" y="520.8">a</tspan><tspan class="cls-24" x="433.04" y="520.8">t</tspan><tspan x="437.7" y="520.8">e </tspan><tspan x="0" y="535.2">In</tspan><tspan class="cls-17" x="10.88" y="535.2">s</tspan><tspan x="16.74" y="535.2">truction</tspan></tspan></text></svg>